<svg width="214" height="28" viewBox="0 0 214 28" fill="none" xmlns="http://www.w3.org/2000/svg">
<path d="M82.1938 25.5994V24.7618C79.7926 24.6525 78.5556 23.8149 76.9548 21.739C75.2813 19.5539 73.1711 16.2762 71.7159 13.7633C74.3353 12.9985 77.5005 11.3961 77.5005 8.00914C77.5005 4.07591 74.3717 2.00003 67.8958 2.00003C65.6038 2.00003 62.5841 2.10929 60.0738 2.10929C59.3461 2.10929 58.6185 2.10929 58 2.07287V3.20185L59.8555 3.34753C61.529 3.4932 61.6018 3.6753 61.6018 6.40671V21.2656C61.6018 23.997 61.4563 24.2519 59.8555 24.3612L58.2911 24.4704V25.5994C59.8191 25.563 61.5654 25.5266 63.3117 25.5266C65.0216 25.5266 66.768 25.563 68.296 25.5994V24.4704L66.7316 24.3612C65.1308 24.2519 64.9853 23.997 64.9853 21.2656V14.2732L69.06 14.346C70.0423 16.6768 71.3884 19.7724 72.8437 22.1396C74.4445 24.7254 76.4091 25.8544 78.7011 25.8544C80.4111 25.8544 81.4297 25.7087 82.1938 25.5994ZM64.9853 11.1412C64.9853 7.64495 65.0216 5.86043 65.1308 3.42037C65.1308 3.42037 66.8043 3.31111 67.7139 3.31111C71.352 3.31111 73.7532 4.87712 73.7532 8.22765C73.7532 11.3232 71.4248 13.1078 69.4966 13.1442L64.9853 13.217V11.1412Z" fill="#101740"/>
<path d="M96.9323 21.3384L96.4229 21.0107C95.2224 22.4674 93.8399 23.4507 91.6206 23.4507C88.4554 23.4507 85.654 20.9014 85.654 16.8953C85.654 16.349 85.6904 15.8756 85.7268 15.4022H95.2951C96.2047 15.4022 96.6776 14.8559 96.6776 14.1639C96.6776 11.2504 94.3856 8.84677 90.7838 8.84677C86.6727 8.84677 82.5616 12.5979 82.5616 17.7694C82.5616 22.7588 85.8723 25.9636 90.3836 25.9636C93.3669 25.9636 95.8772 23.9606 96.9323 21.3384ZM90.3108 10.1943C92.2391 10.1943 93.3305 11.5053 93.3305 13.1806C93.3305 13.7997 93.1486 14.1639 92.5301 14.1639L85.945 14.3096C86.5999 11.6146 88.3098 10.1943 90.3108 10.1943Z" fill="#101740"/>
<path d="M107.668 21.4841L103.52 11.5782C103.447 11.3961 103.375 11.214 103.375 11.0683C103.375 10.777 103.629 10.6313 104.321 10.5585L106.212 10.3764V9.21096C104.866 9.24738 103.193 9.2838 101.665 9.2838C100.137 9.2838 98.7542 9.24738 97.9902 9.21096V10.3035L98.827 10.3764C99.4091 10.4856 99.591 10.6677 99.8457 11.1776L106.613 26H107.195L113.889 11.1776C114.107 10.6677 114.326 10.4856 114.908 10.3764L115.744 10.3035V9.21096C115.053 9.24738 114.144 9.2838 113.052 9.2838C111.961 9.2838 110.651 9.24738 109.159 9.21096V10.3764L111.051 10.5585C111.742 10.6313 111.997 10.777 111.997 11.0683C111.997 11.214 111.961 11.3597 111.852 11.6146L107.668 21.4841Z" fill="#101740"/>
<path d="M130.827 21.3384L130.318 21.0107C129.117 22.4674 127.734 23.4507 125.515 23.4507C122.35 23.4507 119.549 20.9014 119.549 16.8953C119.549 16.349 119.585 15.8756 119.621 15.4022H129.19C130.099 15.4022 130.572 14.8559 130.572 14.1639C130.572 11.2504 128.28 8.84677 124.678 8.84677C120.567 8.84677 116.456 12.5979 116.456 17.7694C116.456 22.7588 119.767 25.9636 124.278 25.9636C127.261 25.9636 129.772 23.9606 130.827 21.3384ZM124.205 10.1943C126.134 10.1943 127.225 11.5053 127.225 13.1806C127.225 13.7997 127.043 14.1639 126.425 14.1639L119.84 14.3096C120.494 11.6146 122.204 10.1943 124.205 10.1943Z" fill="#101740"/>
<path d="M141.74 24.4704L139.957 24.3612C138.829 24.2883 138.393 24.1791 138.393 22.9409V14.0547C139.193 13.1078 141.049 11.8695 141.849 11.8695C142.613 11.8695 143.086 12.7436 144.032 12.7436C144.978 12.7436 145.815 12.088 145.815 10.8498C145.815 9.6844 145.014 8.84677 143.777 8.84677C142.031 8.84677 139.775 11.3232 138.393 13.0349C138.429 10.5585 138.538 9.42947 138.575 8.66468H138.211C136.646 9.53873 134.791 10.3764 133.154 10.8862V11.3597L134.318 12.088C135.228 12.6343 135.228 13.1078 135.228 13.8361V23.1594C135.228 24.2883 135.009 24.3612 133.736 24.434L132.863 24.4704V25.5994C133.991 25.563 135.373 25.5266 136.901 25.5266C138.429 25.5266 140.103 25.563 141.74 25.5994V24.4704Z" fill="#101740"/>
<path d="M161.275 21.3384L160.766 21.0107C159.565 22.4674 158.183 23.4507 155.963 23.4507C152.798 23.4507 149.997 20.9014 149.997 16.8953C149.997 16.349 150.033 15.8756 150.07 15.4022H159.638C160.547 15.4022 161.02 14.8559 161.02 14.1639C161.02 11.2504 158.728 8.84677 155.127 8.84677C151.016 8.84677 146.904 12.5979 146.904 17.7694C146.904 22.7588 150.215 25.9636 154.726 25.9636C157.71 25.9636 160.22 23.9606 161.275 21.3384ZM154.654 10.1943C156.582 10.1943 157.673 11.5053 157.673 13.1806C157.673 13.7997 157.491 14.1639 156.873 14.1639L150.288 14.3096C150.943 11.6146 152.653 10.1943 154.654 10.1943Z" fill="#101740"/>
<path d="M181.684 24.4704L180.811 24.434C179.537 24.3612 179.319 24.2883 179.319 23.1594V13.909C179.319 11.0319 178.155 8.84677 174.99 8.84677C172.843 8.84677 170.26 10.3399 168.841 11.5418L169.023 8.66468H168.659C167.095 9.53873 165.239 10.3764 163.602 10.8862V11.3597L164.766 12.088C165.676 12.6343 165.676 13.1078 165.676 13.8361V23.1594C165.676 24.2883 165.458 24.3612 164.184 24.434L163.311 24.4704V25.5994C164.439 25.563 165.858 25.5266 167.277 25.5266C168.696 25.5266 170.114 25.563 171.206 25.5994V24.4704L170.333 24.434C169.059 24.3612 168.841 24.2883 168.841 23.1594V12.1973C169.969 11.5418 171.17 11.1776 172.406 11.1776C174.88 11.1776 176.154 12.5251 176.154 15.1108V23.1594C176.154 24.2883 175.935 24.3612 174.662 24.434L173.789 24.4704V25.5994C174.917 25.563 176.336 25.5266 177.755 25.5266C179.173 25.5266 180.592 25.563 181.684 25.5994V24.4704Z" fill="#101740"/>
<path d="M183.536 18.1336C183.536 22.868 187.211 25.9636 191.249 25.9636C193.978 25.9636 196.488 24.2155 197.471 21.6662L196.961 21.302C195.833 22.7588 194.451 23.56 192.595 23.56C189.721 23.56 186.702 20.7921 186.702 16.7497C186.702 12.4158 189.685 10.1943 191.904 10.1943C194.087 10.1943 193.541 13.472 195.724 13.472C196.67 13.472 197.289 12.8893 197.289 11.7967C197.289 10.1943 195.215 8.84677 192.304 8.84677C187.611 8.84677 183.536 12.8893 183.536 18.1336Z" fill="#101740"/>
<path d="M214 21.3384L213.491 21.0107C212.29 22.4674 210.908 23.4507 208.688 23.4507C205.523 23.4507 202.722 20.9014 202.722 16.8953C202.722 16.349 202.758 15.8756 202.794 15.4022H212.363C213.272 15.4022 213.745 14.8559 213.745 14.1639C213.745 11.2504 211.453 8.84677 207.852 8.84677C203.74 8.84677 199.629 12.5979 199.629 17.7694C199.629 22.7588 202.94 25.9636 207.451 25.9636C210.435 25.9636 212.945 23.9606 214 21.3384ZM207.379 10.1943C209.307 10.1943 210.398 11.5053 210.398 13.1806C210.398 13.7997 210.216 14.1639 209.598 14.1639L203.013 14.3096C203.668 11.6146 205.378 10.1943 207.379 10.1943Z" fill="#101740"/>
<path fill-rule="evenodd" clip-rule="evenodd" d="M21.9999 15.0769C21.8894 15.0769 21.7796 15.0796 21.6704 15.0849L20.9 4.19617e-05H23.1L22.3296 15.0849C22.2204 15.0796 22.1105 15.0769 21.9999 15.0769ZM1.25379 14.2911L15.7821 19.3664C15.8563 19.1627 15.9407 18.9637 16.0347 18.7701L2.0957 12.3012L1.25379 14.2911ZM15.3999 21.5385C15.3999 21.4303 15.4027 21.3227 15.408 21.2158L0 20.4616V22.6155L15.408 21.8612C15.4027 21.7543 15.3999 21.6467 15.3999 21.5385ZM28.5999 21.5385C28.5999 21.6467 28.5972 21.7543 28.5918 21.8612L44 22.6155V20.4616L28.5919 21.2158C28.5972 21.3227 28.5999 21.4303 28.5999 21.5385ZM27.9652 18.7702C28.0592 18.9638 28.1435 19.1628 28.2178 19.3664L42.7464 14.2912L41.9045 12.3013L27.9652 18.7702ZM26.4281 16.747C26.591 16.8915 26.7466 17.0438 26.8942 17.2034L38.3342 7.07011L36.7786 5.54711L26.4281 16.747ZM24.2186 15.4511C24.4267 15.5238 24.6299 15.6064 24.8277 15.6984L31.4352 2.05168L29.4027 1.22744L24.2186 15.4511ZM19.1723 15.6983C19.3701 15.6064 19.5733 15.5238 19.7813 15.4511L14.5973 1.22744L12.5648 2.05168L19.1723 15.6983ZM17.5719 16.747C17.4089 16.8914 17.2533 17.0438 17.1058 17.2033L5.66579 7.07008L7.22142 5.54708L17.5719 16.747ZM22 25.8569C29.5319 25.8569 36.8887 26.5944 44 28V26.8748C42.7863 26.6398 41.5656 26.3924 40.3382 26.1436C34.3692 24.9338 28.2436 23.6923 22 23.6923C15.7564 23.6923 9.63082 24.9338 3.66178 26.1436C2.43445 26.3924 1.21375 26.6398 0 26.8748V28C7.11128 26.5944 14.4681 25.8569 22 25.8569Z" fill="#101740"/>
</svg>
